<?xml version="1.0" encoding="UTF-8" standalone="no"?>
<!DOCTYPE svg PUBLIC "-//W3C//DTD SVG 1.1//EN" "http://www.w3.org/Graphics/SVG/1.1/DTD/svg11.dtd">
<svg width="100%" height="100%" viewBox="0 0 223 103" version="1.1" xmlns="http://www.w3.org/2000/svg" xmlns:xlink="http://www.w3.org/1999/xlink" xml:space="preserve" xmlns:serif="http://www.serif.com/" style="fill-rule:evenodd;clip-rule:evenodd;stroke-linecap:round;stroke-linejoin:round;stroke-miterlimit:1.5;">
    <g transform="matrix(1,0,0,1,-98.5,-98.5)">
        <circle cx="150" cy="150" r="50" style="fill:none;stroke:rgb(81,132,153);stroke-width:3px;"/>
        <circle cx="310" cy="150" r="10" style="fill:rgb(134,255,248);stroke:rgb(115,161,159);stroke-width:3px;"/>
        <path d="M167,103L227,122.72" style="fill:none;stroke:black;stroke-width:1px;"/>
        <path d="M240,126.993L310,150" style="fill:none;stroke:black;stroke-width:1px;"/>
        <g transform="matrix(1,0,0,1,-1.92374,-17.2389)">
            <g transform="matrix(2e-06,0,0,2e-06,235.007,141.618)">
                <path d="M0,122C60,14 97,6 101,2C105,6 32,7 104,25C49,27 98,25 115,21C54,70 61,88 115,9C50,56 80,70 108,19C55,12 113,14 51,40C101,9 103,14 55,2C107,0 49,56 50,10C48,61 34,60 65,57C65,54 73,34 105,23C106,36 74,44 83,2C120,56 69,50 48,67C105,23 89,33 80,79C77,2 108,1 70,46C73,47 101,18 100,2C70,12 118,41 109,25C52,53 86,41 121,47C112,19 74,45 121,45C55,38 114,7 102,54C72,22 75,69 104,14C102,74 71,5 121,39C47,49 114,75 69,13C51,7 83,75 107,15C78,21 108,72 80,57C119,72 74,68 54,47C109,9 86,73 87,4C113,8 111,67 114,8C76,37 87,47 88,5C87,6 54,46 108,0C79,0 114,79 90,21C122,67 57,32 87,52C120,25 88,14 108,65C101,72 106,47 85,32C51,11 102,14 74,13C90,34 48,23 82,74C90,12 97,25 72,67C78,8 87,32 80,9C53,9 72,21 86,2C112,11 47,17 52,24C98,0 72,73 51,9C50,9 82,14 56,23C86,21 86,20 111,74C106,3 90,52 101,10C52,13 107,39 86,74C89,46 43,6 116,52C85,41 113,12 66,16C115,79 117,8 89,46C77,34 113,14 55,11C108,51 53,12 110,37C103,12 85,46 76,25C97,44 90,79 117,22C113,25 119,36 101,23C111,37 83,55 69,34C74,11 70,46 68,37C77,74 81,3 47,53C55,41 103,37 74,52C55,56 82,16 89,16C87,73 86,42 119,25C69,66 119,0 100,66C81,11 122,33 105,49C54,48 68,75 65,25C50,38 66,17 49,11C79,74 52,16 50,41C109,8 90,44 119,73C77,71 49,66 52,42C52,7 106,54 71,16C88,36 86,44 51,36C68,79 52,20 52,5C50,51 66,9 104,24C69,3 117,3 54,4C75,51 78,18 102,43C68,23 111,66 102,17C103,16 72,42 53,21C90,44 53,43 83,75C77,65 49,23 70,5C102,11 121,38 119,10C79,68 119,53 99,32C77,13 47,71 104,72C54,47 109,48 68,23C88,16 52,69 78,53C68,7 103,40 105,71C51,48 77,1 103,11C43,79 122,57 110,20C77,16 103,1 56,0C110,73 70,51 73,8C87,3 70,57 49,16C82,46 54,25 48,10C50,75 54,72 102,68C100,54 72,69 83,65C113,69 56,53 121,75C112,38 72,6 67,69C54,20 107,40 115,73C109,42 68,73 80,54C52,40 102,67 112,1C50,57 48,68 71,66C72,68 103,35 112,4C113,21 89,22 122,21C69,22 51,5 77,16C51,74 113,49 76,21C120,17 110,67 77,14C114,42 65,54 80,75C72,46 43,79 49,22C101,0 102,21 55,37C79,11 49,72 112,1C49,4 66,15 101,20C100,75 65,22 89,43C111,37 103,61 60,75C108,25 116,21 120,17C116,60 0,122 0,122Z" style="fill-rule:nonzero;stroke:black;stroke-opacity:0;stroke-width:100000px;stroke-linecap:butt;stroke-linejoin:miter;stroke-miterlimit:10;"/>
            </g>
            <g transform="matrix(1,0,0,1,232.007,134.202)">
                <path d="M3.834,5.484L5.334,5.484C5.653,5.484 5.812,5.484 5.812,5.165C5.812,4.988 5.653,4.988 5.366,4.988L3.963,4.988C4.536,2.724 4.616,2.406 4.616,2.31C4.616,2.038 4.425,1.879 4.155,1.879C4.106,1.879 3.659,1.895 3.516,2.454L2.894,4.988L1.395,4.988C1.077,4.988 0.917,4.988 0.917,5.291C0.917,5.484 1.044,5.484 1.363,5.484L2.767,5.484C1.619,10.012 1.555,10.284 1.555,10.57C1.555,11.431 2.161,12.037 3.022,12.037C4.648,12.037 5.558,9.709 5.558,9.582C5.558,9.423 5.43,9.423 5.366,9.423C5.222,9.423 5.206,9.47 5.127,9.645C4.441,11.304 3.595,11.687 3.053,11.687C2.719,11.687 2.559,11.479 2.559,10.952C2.559,10.57 2.591,10.459 2.655,10.187L3.834,5.484" style="fill-rule:nonzero;"/>
            </g>
        </g>
        <g transform="matrix(0.963191,0.268818,-0.268818,0.963191,-16.823,-81.1861)">
            <g transform="matrix(2e-06,0,0,2e-06,224.362,153.553)">
                <path d="M0,122C60,14 97,6 101,2C105,6 32,7 104,25C49,27 98,25 115,21C54,70 61,88 65,17C113,3 88,65 67,65C88,6 120,22 53,72C88,40 52,12 76,13C87,72 86,45 122,79C48,61 34,60 65,57C65,54 73,34 105,23C106,36 74,44 84,65C116,57 69,50 49,2C111,21 87,16 72,65C65,21 117,36 104,53C83,48 121,7 84,33C82,3 117,53 87,17C114,34 113,10 66,49C103,57 69,17 66,15C109,1 86,33 56,32C101,66 84,17 83,49C56,19 116,68 98,34C56,56 118,70 90,24C49,36 118,52 88,79C72,57 50,66 69,19C57,40 67,36 116,22C89,0 56,72 98,13C122,23 122,5 104,15C85,39 109,74 113,10C118,3 51,12 49,23C122,7 54,0 100,0C56,3 117,46 98,65C43,65 47,67 67,74C47,42 72,57 53,45C77,1 48,8 48,11C84,75 76,1 75,57C121,45 84,5 74,45C57,68 113,70 83,4C82,40 85,21 111,19C68,40 78,65 71,57C54,72 114,20 57,3C112,53 115,38 53,65C108,79 100,36 88,11C48,0 84,11 90,75C70,52 72,57 85,36C111,22 50,65 115,68C87,13 56,12 122,14C98,72 54,73 88,21C86,6 100,34 122,36C56,25 51,39 98,13C48,41 97,34 108,47C86,18 80,73 50,7C109,34 71,67 77,70C119,38 108,1 82,56C103,17 104,37 97,51C105,12 113,55 65,49C98,20 77,36 112,41C75,49 105,22 89,15C121,7 112,56 97,46C88,72 79,55 66,21C89,43 71,25 85,32C69,40 65,22 56,44C43,12 100,36 121,16C71,35 51,46 97,39C81,67 89,10 87,53C117,72 83,13 105,0C88,5 114,66 73,33C77,6 112,35 49,22C81,44 53,38 51,71C116,35 68,65 113,40C88,51 119,13 119,67C118,47 73,45 104,20C71,40 56,0 115,65C70,39 52,32 56,67C47,23 116,49 54,23C118,54 106,38 122,14C88,18 65,18 50,32C74,72 97,50 104,39C66,72 48,5 105,32C53,0 77,65 74,24C71,56 101,52 120,66C107,23 103,79 79,37C75,2 82,0 121,54C106,46 76,50 68,5C119,69 80,0 71,70C77,4 77,69 90,39C66,39 67,74 116,35C77,3 98,15 75,1C110,6 43,22 116,79C112,15 56,34 107,16C43,12 110,41 114,42C57,52 115,25 48,67C55,15 43,40 109,69C85,33 77,48 88,66C47,38 69,71 71,12C75,3 100,6 114,67C88,10 98,21 121,9C90,14 102,36 55,72C103,43 75,73 106,52C79,6 43,47 106,1C54,79 89,33 101,0C82,25 122,3 65,0C47,2 121,67 108,2C98,10 51,20 122,10C47,50 85,47 100,40C53,71 122,55 80,66C117,69 101,3 66,70C57,47 69,13 60,75C108,25 116,21 120,17C116,60 0,122 0,122Z" style="fill-rule:nonzero;stroke:black;stroke-opacity:0;stroke-width:100000px;stroke-linecap:butt;stroke-linejoin:miter;stroke-miterlimit:10;"/>
            </g>
            <g transform="matrix(1,0,0,1,218.362,147.392)">
                <path d="M5.606,1.81C5.701,1.427 5.749,1.268 6.053,1.219C6.196,1.204 6.706,1.204 7.026,1.204C8.157,1.204 9.928,1.204 9.928,2.782C9.928,3.324 9.673,4.424 9.051,5.046C8.635,5.462 7.79,5.971 6.356,5.971L4.57,5.971L5.606,1.81ZM7.903,6.179C9.514,5.827 11.41,4.712 11.41,3.101C11.41,1.73 9.976,0.708 7.887,0.708L3.342,0.708C3.023,0.708 2.879,0.708 2.879,1.029C2.879,1.204 3.023,1.204 3.326,1.204C3.357,1.204 3.66,1.204 3.932,1.235C4.218,1.268 4.362,1.283 4.362,1.49C4.362,1.554 4.346,1.602 4.298,1.793L2.162,10.357C2.003,10.979 1.97,11.107 0.71,11.107C0.423,11.107 0.279,11.107 0.279,11.426C0.279,11.601 0.471,11.601 0.503,11.601C0.949,11.601 2.065,11.552 2.512,11.552C2.959,11.552 4.092,11.601 4.537,11.601C4.665,11.601 4.857,11.601 4.857,11.282C4.857,11.107 4.714,11.107 4.41,11.107C3.82,11.107 3.373,11.107 3.373,10.819C3.373,10.724 3.406,10.644 3.421,10.548L4.474,6.323L6.371,6.323C7.823,6.323 8.11,7.215 8.11,7.774C8.11,8.013 7.982,8.507 7.887,8.874C7.774,9.321 7.631,9.91 7.631,10.229C7.631,11.952 9.545,11.952 9.753,11.952C11.107,11.952 11.665,10.341 11.665,10.118C11.665,9.926 11.49,9.926 11.474,9.926C11.331,9.926 11.299,10.038 11.267,10.149C10.868,11.33 10.182,11.601 9.817,11.601C9.29,11.601 9.178,11.249 9.178,10.627C9.178,10.133 9.274,9.321 9.337,8.81C9.37,8.587 9.401,8.283 9.401,8.06C9.401,6.832 8.332,6.338 7.903,6.179" style="fill-rule:nonzero;"/>
            </g>
        </g>
        <g transform="matrix(1,0,0,1,2.2615,-21.2377)">
            <g transform="matrix(2e-06,0,0,2e-06,227.331,171.387)">
                <path d="M0,122C60,14 97,6 101,2C105,6 32,7 104,25C49,27 98,25 115,21C54,70 61,88 82,7C65,12 76,1 47,21C50,79 103,39 122,54C104,35 97,1 119,4C113,0 79,14 66,70C85,61 34,60 65,57C65,54 73,34 105,23C106,36 74,44 83,2C120,56 69,50 48,67C82,13 79,45 110,66C107,2 108,1 70,46C73,47 101,18 100,2C70,12 118,41 107,25C121,39 87,19 52,47C112,19 74,45 121,45C55,38 114,7 102,44C69,65 75,69 104,14C102,70 70,34 47,41C88,79 109,6 121,55C78,66 108,20 121,39C71,4 121,73 72,49C89,37 108,68 54,47C109,9 86,73 87,4C113,8 111,67 114,8C76,37 49,15 111,65C116,46 121,32 70,67C78,0 76,79 100,20C76,24 120,21 88,52C112,21 87,36 49,67C99,72 106,46 107,37C108,74 80,1 109,0C48,18 122,50 107,22C86,32 87,5 104,79C110,22 97,32 80,9C54,45 106,4 73,70C48,74 102,2 99,44C118,69 106,1 54,73C115,35 108,32 72,44C82,34 108,38 55,44C111,74 71,40 110,9C100,48 86,56 80,25C78,65 57,35 50,1C111,49 86,24 105,2C50,20 86,36 115,44C107,46 86,39 57,74C83,8 101,0 84,9C81,38 75,52 108,6C78,51 117,4 88,51C118,44 52,17 118,43C85,55 76,56 67,54C107,74 67,6 84,37C77,74 83,3 47,53C55,41 103,37 74,52C55,56 82,16 89,11C90,25 75,12 54,44C67,40 97,33 79,72C75,37 90,15 82,53C100,45 106,75 103,44C90,48 103,2 97,74C72,25 101,36 55,49C82,36 77,13 55,54C84,56 56,20 117,50C101,52 77,35 97,74C113,68 113,10 87,66C114,20 51,44 56,52C71,74 121,6 77,56C90,13 49,79 69,36C90,39 121,45 106,69C120,20 54,47 108,2C119,32 104,75 53,21C90,44 53,43 83,75C77,65 49,23 78,23C55,40 107,71 108,39C100,14 103,48 52,17C90,44 110,12 108,72C54,54 72,53 104,5C76,2 56,37 107,17C66,79 83,49 120,24C55,15 71,40 83,37C102,34 98,19 122,4C109,48 119,32 101,32C122,1 103,16 107,36C112,33 105,11 89,2C73,10 43,18 100,43C102,4 43,10 107,79C88,37 122,79 107,12C89,5 80,44 78,4C97,37 122,67 103,5C100,12 53,37 89,6C74,12 119,65 84,74C47,53 110,68 52,23C100,11 80,43 82,8C67,79 114,65 112,24C113,12 108,50 56,71C105,50 57,75 106,49C116,2 74,17 67,69C43,2 120,65 107,39C86,8 106,51 68,35C54,65 79,79 43,50C57,65 79,67 102,3C122,73 87,15 51,43C87,75 121,73 118,52C57,75 65,44 67,37C111,37 89,61 60,75C108,25 116,21 120,17C116,60 0,122 0,122Z" style="fill-rule:nonzero;stroke:black;stroke-opacity:0;stroke-width:100000px;stroke-linecap:butt;stroke-linejoin:miter;stroke-miterlimit:10;"/>
            </g>
            <g transform="matrix(1,0,0,1,223.331,167.365)">
                <path d="M2.857,6.757C2.809,6.996 2.713,7.363 2.713,7.443C2.713,7.729 2.937,7.872 3.176,7.872C3.368,7.872 3.654,7.746 3.767,7.427C3.798,7.363 4.34,5.194 4.404,4.907C4.532,4.38 4.818,3.265 4.915,2.833C4.977,2.627 5.424,1.877 5.807,1.526C5.935,1.415 6.398,1.001 7.084,1.001C7.498,1.001 7.737,1.191 7.752,1.191C7.274,1.271 6.924,1.654 6.924,2.068C6.924,2.324 7.099,2.627 7.529,2.627C7.96,2.627 8.407,2.26 8.407,1.685C8.407,1.127 7.896,0.649 7.084,0.649C6.046,0.649 5.345,1.43 5.042,1.877C4.915,1.16 4.34,0.649 3.592,0.649C2.857,0.649 2.554,1.271 2.41,1.558C2.124,2.101 1.916,3.057 1.916,3.105C1.916,3.265 2.076,3.265 2.107,3.265C2.267,3.265 2.284,3.249 2.379,2.897C2.649,1.765 2.97,1.001 3.543,1.001C3.813,1.001 4.037,1.127 4.037,1.733C4.037,2.068 3.99,2.244 3.782,3.072L2.857,6.757" style="fill-rule:nonzero;"/>
            </g>
        </g>
        <g transform="matrix(1.5,0,0,1.4878,-75,-73.5571)">
            <path d="M153.667,140.712C157.374,142.212 160,145.919 160,150.25" style="fill:none;stroke:black;stroke-width:0.67px;"/>
        </g>
        <g transform="matrix(1,0,0,1,168.1,21.5163)">
            <g transform="matrix(2e-06,0,0,2e-06,3.5,115.559)">
                <path d="M0,122C60,14 97,6 101,2C105,6 32,7 104,25C49,27 98,25 115,21C54,70 61,88 83,7C65,38 121,12 118,0C76,25 74,51 53,44C115,69 43,20 51,1C48,65 72,54 51,70C81,61 34,60 65,57C65,54 74,71 105,23C106,36 74,44 97,2C82,56 69,50 48,67C71,11 51,8 82,2C73,65 101,18 108,23C66,53 57,54 55,2C73,1 109,73 118,57C68,67 119,49 69,22C120,7 73,57 110,39C77,79 110,7 68,16C116,20 84,42 99,51C52,8 73,75 119,9C118,79 65,12 43,44C78,74 109,43 47,19C56,42 118,9 53,45C66,57 43,46 57,6C66,38 86,25 43,9C88,14 86,73 100,73C76,12 109,34 86,47C88,34 87,55 87,67C102,34 55,6 120,22C118,65 101,65 47,79C68,18 111,70 51,44C114,23 99,50 116,10C111,71 113,40 109,14C86,36 52,73 104,70C109,72 74,7 57,47C77,71 75,32 121,66C49,18 51,40 104,22C74,46 107,32 74,67C79,34 51,16 56,79C78,70 51,44 113,4C75,54 117,68 106,44C83,25 69,12 90,34C97,35 112,22 111,40C71,18 43,67 113,34C71,68 43,71 71,0C112,68 74,33 120,38C117,67 103,73 66,52C117,66 78,33 68,35C79,4 68,42 114,24C82,42 113,40 107,6C86,54 117,75 97,8C114,23 52,25 106,12C71,47 67,17 110,13C75,51 66,41 119,14C72,42 111,35 72,69C72,25 69,42 104,32C114,33 67,40 98,53C71,13 113,32 43,57C50,35 54,54 74,71C122,17 106,54 67,53C49,74 120,4 43,53C49,14 71,46 108,8C81,65 112,69 88,7C108,52 86,1 55,11C97,32 73,32 53,0C118,2 72,51 104,44C71,79 113,9 70,5C75,34 57,2 102,2C74,7 115,8 76,55C81,10 104,65 104,2C101,37 105,38 66,21C99,67 54,16 120,72C72,47 109,50 47,14C70,13 51,15 56,8C56,0 47,36 119,43C90,2 106,47 80,56C107,67 114,57 88,2C107,68 90,75 101,52C55,40 48,2 67,24C105,39 102,53 97,70C109,23 107,55 77,40C43,69 120,12 85,52C75,43 50,49 69,75C53,2 117,51 85,51C89,79 112,22 81,17C106,24 67,37 76,25C77,13 88,74 80,10C122,65 47,71 115,71C113,68 104,42 119,36C55,37 74,70 86,6C47,39 103,4 97,37C53,72 102,14 82,17C50,35 102,54 48,71C84,1 82,23 114,40C119,45 111,4 53,43C116,42 49,21 57,20C90,37 43,70 55,35C56,40 84,42 56,49C74,4 74,23 89,21C51,13 75,20 115,75C107,68 110,75 69,52C88,70 78,4 119,20C102,19 82,71 66,69C72,40 112,74 50,10C119,12 43,51 115,52C80,71 56,54 85,68C43,16 106,57 61,61C60,75 108,25 116,21C120,17 116,60 0,122Z" style="fill-rule:nonzero;stroke:black;stroke-opacity:0;stroke-width:100000px;stroke-linecap:butt;stroke-linejoin:miter;stroke-miterlimit:10;"/>
            </g>
            <g transform="matrix(1,0,0,1,0,109.272)">
                <path d="M6.9,3.954C6.9,2.901 6.613,0.685 4.986,0.685C2.769,0.685 0.314,5.182 0.314,8.833C0.314,10.332 0.777,12.102 2.227,12.102C4.475,12.102 6.9,7.526 6.9,3.954ZM2.003,6.138C2.275,5.118 2.594,3.843 3.232,2.71C3.663,1.929 4.252,1.035 4.971,1.035C5.752,1.035 5.847,2.057 5.847,2.965C5.847,3.746 5.719,4.56 5.336,6.138L2.003,6.138ZM5.194,6.649C5.017,7.382 4.683,8.738 4.077,9.887C3.519,10.971 2.913,11.752 2.227,11.752C1.702,11.752 1.366,11.29 1.366,9.807C1.366,9.137 1.461,8.212 1.877,6.649L5.194,6.649" style="fill-rule:nonzero;"/>
            </g>
        </g>
        <path d="M150,150L219,150" style="fill:none;stroke:black;stroke-width:1px;"/>
        <path d="M310,150L240,150" style="fill:none;stroke:black;stroke-width:1px;"/>
        <path d="M150,150L155.245,135.5" style="fill:none;stroke:black;stroke-width:1px;"/>
        <path d="M161.213,119L167,103" style="fill:none;stroke:black;stroke-width:1px;"/>
    </g>
</svg>
