<?xml version="1.0" encoding="UTF-8" standalone="no"?>
<!DOCTYPE svg PUBLIC "-//W3C//DTD SVG 1.1//EN" "http://www.w3.org/Graphics/SVG/1.1/DTD/svg11.dtd">
<svg width="100%" height="100%" viewBox="0 0 115 106" version="1.1" xmlns="http://www.w3.org/2000/svg" xmlns:xlink="http://www.w3.org/1999/xlink" xml:space="preserve" xmlns:serif="http://www.serif.com/" style="fill-rule:evenodd;clip-rule:evenodd;stroke-linecap:round;stroke-linejoin:round;stroke-miterlimit:1.5;">
    <g transform="matrix(1,0,0,1,-447.758,-73.0583)">
        <g transform="matrix(1,0,0,1,300,0)">
            <path d="M176.5,107.602C176.988,107.908 177.471,108.222 177.947,108.544C191.248,117.533 200,132.753 200,150C200,159.995 197.061,169.31 192,177.125" style="fill:none;stroke:rgb(79,152,182);stroke-width:1px;"/>
        </g>
        <g transform="matrix(1.4,0,0,1.4,240,-60)">
            <path d="M176.429,107.557C190.578,116.392 200,132.104 200,150C200,157.109 198.513,163.874 195.833,170" style="fill:none;stroke:rgb(79,152,182);stroke-width:0.71px;"/>
        </g>
        <g transform="matrix(1.8,0,0,1.8,180,-120)">
            <path d="M176.389,107.532C190.561,116.363 200,132.088 200,150C200,155.43 199.133,160.659 197.529,165.556" style="fill:none;stroke:rgb(79,152,182);stroke-width:0.56px;"/>
        </g>
        <g transform="matrix(0.6,0,0,0.6,470,60)">
            <path d="M120.01,190C107.863,180.875 100,166.348 100,150C100,126.72 115.945,107.134 137.5,101.578" style="fill:none;stroke:rgb(98,78,171);stroke-width:1.67px;"/>
        </g>
        <g transform="matrix(1,0,0,1,410,-2.13163e-14)">
            <path d="M108.58,178C103.164,170.009 100,160.371 100,150C100,126.61 116.096,106.949 137.806,101.5" style="fill:none;stroke:rgb(98,78,171);stroke-width:1px;"/>
        </g>
        <g transform="matrix(1.4,0,0,1.4,350,-60)">
            <path d="M103.898,169.375C101.388,163.415 100,156.868 100,150C100,126.591 116.121,106.918 137.857,101.487" style="fill:none;stroke:rgb(98,78,171);stroke-width:0.71px;"/>
        </g>
        <path d="M450,150L481,138.727" style="fill:none;stroke:black;stroke-width:1px;"/>
        <path d="M491,135.091L516,126" style="fill:none;stroke:black;stroke-width:1px;"/>
        <path d="M560,150L540.75,139.5" style="fill:none;stroke:black;stroke-width:1px;"/>
        <path d="M531,134.182L516,126" style="fill:none;stroke:black;stroke-width:1px;"/>
        <path d="M450,150L501.5,150" style="fill:none;stroke:black;stroke-width:1px;"/>
        <path d="M507.5,150L560,150" style="fill:none;stroke:black;stroke-width:1px;"/>
        <path d="M516,126L516,150" style="fill:none;stroke:black;stroke-width:1px;stroke-linecap:butt;"/>
        <path d="M516,147L519,147L519,150" style="fill:none;stroke:black;stroke-width:1px;stroke-linecap:butt;"/>
        <path d="M505,106L516,126L530.5,109.5L519.5,93L505,106Z" style="fill:rgb(131,143,154);fill-opacity:0.35;stroke:black;stroke-width:1px;"/>
        <g transform="matrix(1.33333,0,0,1.33333,-178,-48)">
            <path d="M524.397,132.75C523.619,134.095 522.164,135 520.5,135C518.542,135 516.875,133.747 516.256,132" style="fill:none;stroke:black;stroke-width:0.75px;stroke-linecap:butt;"/>
        </g>
        <g transform="matrix(1.33333,0,0,1.33333,-178,-48)">
            <path d="M518.25,126.603C518.912,126.219 519.681,126 520.5,126C521.652,126 522.704,126.434 523.5,127.147" style="fill:none;stroke:black;stroke-width:0.75px;stroke-linecap:butt;"/>
        </g>
        <path d="M519,123L521.5,125L519.5,128" style="fill:none;stroke:black;stroke-width:1px;stroke-linecap:butt;"/>
        <path d="M514,122.5L511,124L512.5,127.231" style="fill:none;stroke:black;stroke-width:1px;stroke-linecap:butt;"/>
        <g transform="matrix(1,0,0,1,48.5732,-31.3109)">
            <g transform="matrix(2e-06,0,0,2e-06,465.507,163.352)">
                <path d="M0,122C60,14 97,6 101,2C105,6 32,7 104,25C49,27 98,25 115,21C54,70 61,88 82,5C83,44 97,34 50,13C104,5 73,79 85,24C117,7 83,79 75,41C69,74 97,57 78,9C103,61 34,60 65,57C65,54 76,12 105,23C106,36 76,44 84,18C82,56 69,47 52,22C66,57 72,14 47,66C104,14 99,54 88,2C52,9 82,12 88,40C98,72 82,11 73,33C76,1 97,33 117,53C68,55 111,43 107,32C109,6 51,43 122,14C43,13 101,74 108,19C115,79 47,18 86,32C55,57 112,0 72,2C81,46 122,68 69,56C55,66 117,18 104,45C80,51 121,3 74,0C49,36 57,36 88,36C49,73 88,36 72,32C101,10 78,14 97,49C72,3 49,4 53,6C72,7 51,43 80,69C104,23 85,12 84,69C101,35 86,73 98,34C49,11 57,45 77,25C111,39 49,37 117,47C116,47 104,43 89,13C108,37 113,12 80,36C115,65 113,13 54,9C83,7 108,45 122,17C86,56 51,50 119,71C51,12 80,67 53,37C108,22 70,52 47,6C70,21 108,21 111,7C107,75 49,23 88,79C104,53 87,15 67,20C111,14 74,50 87,68C43,17 114,23 103,43C108,48 87,20 86,69C115,17 54,51 121,71C117,68 76,14 105,68C68,24 102,24 48,22C100,10 119,17 50,10C49,35 54,49 101,56C52,44 87,15 101,18C48,35 97,70 49,32C105,5 105,23 67,15C112,11 82,56 107,10C121,7 108,55 84,74C109,39 119,34 100,47C73,41 107,9 103,32C51,40 71,52 103,52C84,24 78,20 48,33C81,35 107,38 116,55C108,53 75,53 66,54C114,53 118,3 47,8C116,53 90,0 50,49C55,38 99,50 97,55C85,73 76,7 67,10C107,79 118,23 66,79C121,70 119,2 111,6C50,10 67,8 113,56C47,49 49,65 122,36C104,75 54,19 108,16C90,12 89,36 88,15C72,51 122,50 106,50C43,40 52,21 83,3C80,53 80,48 83,24C49,32 71,38 47,66C53,74 102,36 109,68C111,52 51,5 82,68C80,55 107,18 72,34C97,20 75,34 53,3C48,66 70,24 65,18C101,71 119,68 52,45C103,79 79,51 75,72C76,0 71,54 72,46C75,50 67,6 121,23C55,2 108,66 55,4C107,23 85,8 74,37C122,48 76,34 106,56C74,66 70,25 83,24C118,68 116,12 101,12C99,2 43,57 118,33C71,20 78,45 118,68C85,2 55,57 72,13C90,75 104,51 68,37C51,3 101,5 54,20C105,54 57,22 79,35C111,52 89,39 100,11C102,2 68,44 118,21C102,73 79,69 113,12C84,34 112,51 76,75C70,35 100,13 105,42C51,6 69,18 101,15C116,41 55,40 102,68C83,16 102,21 78,79C43,67 100,79 118,65C118,57 118,73 71,12C88,43 66,4 50,0C118,52 57,75 65,47C69,8 112,19 103,61C60,75 108,25 116,21C120,17 116,60 0,122Z" style="fill-rule:nonzero;stroke:black;stroke-opacity:0;stroke-width:100000px;stroke-linecap:butt;stroke-linejoin:miter;stroke-miterlimit:10;"/>
            </g>
            <g transform="matrix(1,0,0,1,455.007,162.634)">
                <path d="M4.259,0.985L5.385,0.985C5.055,2.46 4.966,2.888 4.966,3.557C4.966,3.705 4.966,3.974 5.046,4.313C5.146,4.752 5.255,4.811 5.404,4.811C5.604,4.811 5.813,4.632 5.813,4.433C5.813,4.374 5.813,4.353 5.754,4.214C5.465,3.496 5.465,2.849 5.465,2.569C5.465,2.041 5.534,1.503 5.643,0.985L6.779,0.985C6.909,0.985 7.268,0.985 7.268,0.646C7.268,0.407 7.059,0.407 6.87,0.407L3.531,0.407C3.312,0.407 2.934,0.407 2.495,0.875C2.146,1.264 1.887,1.722 1.887,1.772C1.887,1.782 1.887,1.872 2.007,1.872C2.087,1.872 2.106,1.832 2.166,1.752C2.654,0.985 3.232,0.985 3.432,0.985L3.999,0.985C3.681,2.191 3.143,3.397 2.724,4.303C2.645,4.453 2.645,4.472 2.645,4.543C2.645,4.732 2.804,4.811 2.934,4.811C3.232,4.811 3.312,4.533 3.432,4.164C3.571,3.705 3.571,3.686 3.701,3.188L4.259,0.985" style="fill-rule:nonzero;"/>
            </g>
            <g transform="matrix(1,0,0,1,455.007,161.837)">
                <path d="M14.685,3.207C14.854,3.207 15.034,3.207 15.034,3.008C15.034,2.808 14.854,2.808 14.685,2.808L9.295,2.808C9.124,2.808 8.945,2.808 8.945,3.008C8.945,3.207 9.124,3.207 9.295,3.207L14.685,3.207" style="fill-rule:nonzero;"/>
            </g>
            <g transform="matrix(1,0,0,1,455.007,159.904)">
                <path d="M20.952,2.449C20.952,1.791 20.773,0.407 19.755,0.407C18.371,0.407 16.837,3.216 16.837,5.499C16.837,6.435 17.126,7.541 18.032,7.541C19.437,7.541 20.952,4.682 20.952,2.449ZM17.893,3.814C18.062,3.177 18.262,2.38 18.66,1.672C18.929,1.183 19.298,0.625 19.746,0.625C20.235,0.625 20.295,1.263 20.295,1.832C20.295,2.319 20.215,2.828 19.976,3.814L17.893,3.814ZM19.885,4.133C19.776,4.591 19.566,5.439 19.188,6.157C18.84,6.833 18.46,7.322 18.032,7.322C17.704,7.322 17.495,7.033 17.495,6.107C17.495,5.688 17.554,5.11 17.813,4.133L19.885,4.133" style="fill-rule:nonzero;"/>
            </g>
        </g>
        <g transform="matrix(1,0,0,1,49.631,-50.3109)">
            <g transform="matrix(2e-06,0,0,2e-06,466.678,163.352)">
                <path d="M0,122C60,14 97,6 101,2C105,6 32,7 104,25C49,27 98,25 115,21C54,70 61,88 77,25C107,56 74,2 90,14C81,24 50,4 113,46C52,2 49,6 103,74C116,5 100,72 79,10C85,61 34,60 65,57C65,54 74,12 105,23C106,36 74,44 98,65C78,57 69,50 48,2C70,53 114,69 97,5C72,49 120,39 73,19C99,24 76,35 73,41C51,15 86,11 107,42C99,37 69,9 69,15C107,8 116,40 86,25C117,65 118,53 120,52C47,1 98,17 113,36C75,42 43,56 75,75C119,55 102,19 48,71C104,46 106,2 81,0C106,3 100,5 111,17C99,33 104,19 114,20C88,45 118,48 108,69C117,0 77,67 83,32C49,12 49,17 110,73C111,2 78,23 117,8C120,72 53,21 114,68C116,33 51,8 78,72C55,21 117,8 50,69C100,35 100,7 113,71C109,38 109,14 70,25C53,36 87,0 110,72C104,8 56,9 119,74C73,69 101,69 51,43C122,34 106,22 70,52C107,10 117,65 90,42C98,45 43,75 100,43C84,35 79,0 113,12C122,8 122,13 112,0C86,43 104,48 109,32C49,15 113,34 97,53C120,11 100,5 97,10C120,79 116,65 108,36C48,35 67,67 80,73C83,65 85,53 88,54C52,21 80,6 101,43C65,36 49,40 47,74C52,16 67,43 108,47C119,5 50,8 86,24C98,34 88,35 99,49C104,16 86,53 103,2C82,3 71,54 69,11C53,68 68,19 51,46C55,3 65,2 70,51C112,17 82,73 103,41C97,68 104,14 52,16C100,33 89,11 79,69C99,74 89,32 82,13C105,17 77,75 52,12C116,57 53,25 116,47C84,6 79,25 49,15C112,0 119,14 53,72C54,33 71,21 73,18C57,74 116,18 84,56C106,6 84,0 88,37C76,21 85,4 55,19C43,55 84,36 97,21C115,56 66,13 102,66C77,0 121,15 81,33C122,0 108,20 48,79C77,3 90,23 121,75C99,11 115,72 99,4C110,20 109,24 52,5C104,2 77,66 108,34C111,1 51,8 65,35C120,52 101,25 47,5C70,69 84,15 57,54C98,55 97,21 69,55C56,15 99,15 75,43C82,43 120,38 57,9C67,15 72,42 69,51C118,7 56,34 68,47C72,37 102,53 121,10C82,40 112,18 75,36C116,51 84,24 54,51C48,4 102,20 51,72C100,73 100,41 110,69C75,65 113,52 56,47C120,79 112,41 88,6C75,20 116,12 53,37C85,6 108,10 121,21C105,2 69,48 86,1C118,16 88,18 81,42C111,4 52,24 49,22C49,69 48,45 55,40C79,5 55,18 80,18C53,2 86,10 53,19C66,68 43,3 121,65C112,39 118,45 100,50C102,45 76,12 52,53C118,3 78,20 103,35C102,54 56,42 68,38C112,6 122,14 51,66C116,33 75,20 118,3C72,18 100,25 78,23C60,75 108,25 116,21C120,17 116,60 0,122Z" style="fill-rule:nonzero;stroke:black;stroke-opacity:0;stroke-width:100000px;stroke-linecap:butt;stroke-linejoin:miter;stroke-miterlimit:10;"/>
            </g>
            <g transform="matrix(1,0,0,1,464.178,159.904)">
                <path d="M4.306,2.449C4.306,1.791 4.127,0.407 3.11,0.407C1.725,0.407 0.191,3.216 0.191,5.499C0.191,6.435 0.48,7.541 1.386,7.541C2.791,7.541 4.306,4.682 4.306,2.449ZM1.247,3.814C1.416,3.177 1.616,2.38 2.014,1.672C2.283,1.183 2.652,0.625 3.1,0.625C3.589,0.625 3.649,1.263 3.649,1.832C3.649,2.319 3.569,2.828 3.33,3.814L1.247,3.814ZM3.239,4.133C3.13,4.591 2.92,5.439 2.542,6.157C2.194,6.833 1.814,7.322 1.386,7.322C1.058,7.322 0.849,7.033 0.849,6.107C0.849,5.688 0.908,5.11 1.167,4.133L3.239,4.133" style="fill-rule:nonzero;"/>
            </g>
        </g>
        <g transform="matrix(1,0,0,1,-24.5772,6.94041)">
            <g transform="matrix(2e-06,0,0,2e-06,510.67,129.823)">
                <path d="M0,122C60,14 97,6 101,2C105,6 32,7 104,25C49,27 98,25 115,21C54,70 61,88 66,35C50,38 65,73 75,71C101,13 73,67 55,41C102,36 50,70 83,66C52,79 80,12 49,23C99,61 34,60 65,57C65,54 73,34 105,23C106,36 76,46 84,6C116,57 70,54 48,2C112,36 66,11 67,69C81,14 71,70 116,41C113,39 116,8 72,53C76,25 55,48 66,70C113,56 115,15 107,56C112,57 111,9 105,1C122,40 67,7 43,55C87,42 103,74 83,16C102,57 70,24 43,57C75,79 104,18 49,17C86,75 86,34 117,5C105,32 105,68 110,37C82,22 83,43 78,24C55,4 99,2 57,0C119,1 75,48 84,25C88,37 106,70 89,0C57,35 76,68 53,23C122,7 113,67 110,69C49,72 47,21 76,17C119,5 118,38 115,74C43,24 67,45 100,55C47,47 107,67 119,66C68,19 79,16 107,0C106,38 118,39 113,5C69,12 49,23 108,54C112,49 119,74 81,20C104,33 77,6 97,0C43,68 49,47 87,48C56,79 120,46 100,36C88,11 48,0 84,11C90,75 70,69 72,57C85,36 86,41 102,52C116,66 87,13 56,16C111,24 55,25 53,9C117,23 114,8 100,6C99,71 47,49 53,14C86,46 118,38 56,14C51,20 85,71 75,25C113,45 57,79 118,6C83,33 120,14 101,23C73,37 101,53 73,36C74,11 90,47 106,49C74,3 104,19 43,48C51,57 104,74 74,56C51,39 108,51 49,48C88,15 89,8 70,8C106,54 72,50 50,55C71,65 78,54 48,55C97,19 102,66 57,1C109,22 49,44 113,45C115,7 85,74 69,18C48,2 83,66 74,24C77,6 76,52 101,65C53,22 81,41 122,10C98,24 78,9 56,11C98,74 70,79 57,71C48,20 85,12 90,18C103,48 115,9 51,3C105,16 81,37 120,55C102,45 80,36 111,9C88,44 68,12 88,67C70,10 55,38 110,79C55,74 106,24 86,70C86,0 102,48 74,79C89,14 90,33 105,45C90,72 71,4 51,56C50,25 97,14 112,51C52,19 70,18 99,67C52,6 107,12 82,17C106,1 74,35 101,41C107,20 90,33 103,32C51,0 77,70 73,8C80,32 43,40 66,15C75,73 111,51 81,73C89,15 67,66 107,6C84,43 51,65 89,0C117,24 117,41 43,54C110,14 86,50 65,13C118,65 75,49 56,19C88,12 90,79 82,52C68,23 98,23 110,5C99,36 99,39 99,0C104,1 51,42 55,71C106,6 65,65 88,23C88,47 118,71 97,56C89,8 87,45 85,50C55,7 112,50 98,43C73,0 57,6 108,24C120,57 122,34 117,45C71,6 99,79 102,23C79,3 47,43 52,69C79,8 48,68 104,16C108,4 72,34 99,34C55,79 66,10 122,9C111,39 103,61 60,75C108,25 116,21 120,17C116,60 0,122 0,122Z" style="fill-rule:nonzero;stroke:black;stroke-opacity:0;stroke-width:100000px;stroke-linecap:butt;stroke-linejoin:miter;stroke-miterlimit:10;"/>
            </g>
            <g transform="matrix(1,0,0,1,507.67,125.959)">
                <path d="M1.472,6.383C1.393,6.723 1.372,6.793 0.935,6.793C0.815,6.793 0.705,6.793 0.705,6.982C0.705,7.062 0.755,7.101 0.835,7.101C1.104,7.101 1.393,7.071 1.672,7.071C2.001,7.071 2.34,7.101 2.658,7.101C2.708,7.101 2.838,7.101 2.838,6.902C2.838,6.793 2.738,6.793 2.599,6.793C2.101,6.793 2.101,6.723 2.101,6.632C2.101,6.513 2.519,4.888 2.588,4.64C2.718,4.929 2.997,5.277 3.505,5.277C4.661,5.277 5.907,3.823 5.907,2.358C5.907,1.421 5.338,0.763 4.582,0.763C4.083,0.763 3.605,1.123 3.276,1.51C3.177,0.973 2.747,0.763 2.379,0.763C1.921,0.763 1.732,1.152 1.641,1.332C1.463,1.671 1.333,2.268 1.333,2.298C1.333,2.398 1.432,2.398 1.452,2.398C1.552,2.398 1.561,2.388 1.622,2.168C1.791,1.462 1.991,0.982 2.349,0.982C2.519,0.982 2.658,1.063 2.658,1.441C2.658,1.671 2.629,1.78 2.588,1.949L1.472,6.383ZM3.226,2.058C3.296,1.79 3.565,1.51 3.744,1.362C4.093,1.052 4.382,0.982 4.552,0.982C4.951,0.982 5.19,1.332 5.19,1.919C5.19,2.507 4.86,3.654 4.682,4.032C4.343,4.729 3.865,5.058 3.496,5.058C2.838,5.058 2.708,4.232 2.708,4.171C2.708,4.152 2.708,4.132 2.738,4.012L3.226,2.058" style="fill-rule:nonzero;"/>
            </g>
        </g>
        <g transform="matrix(1,0,0,1,24.9705,6.94041)">
            <g transform="matrix(2e-06,0,0,2e-06,511.271,129.823)">
                <path d="M0,122C60,14 97,6 101,2C105,6 32,7 104,25C49,27 98,25 115,21C54,70 61,88 113,0C78,15 100,44 103,45C69,9 86,42 50,33C68,38 66,6 105,65C68,54 49,6 66,20C77,61 34,60 65,57C65,54 73,34 105,23C106,36 76,46 84,6C116,57 70,54 49,2C111,38 122,68 65,8C112,15 89,0 87,6C120,45 111,25 112,1C70,6 100,15 103,6C86,38 100,49 73,56C70,57 65,14 84,32C90,15 105,7 43,49C88,50 81,33 73,11C88,65 66,6 43,41C75,79 104,14 51,36C88,22 86,20 89,22C69,0 70,70 80,53C73,13 114,50 71,6C47,71 117,33 43,69C89,32 72,53 112,14C76,9 100,66 78,69C77,16 80,67 100,51C53,79 89,20 72,32C56,2 99,4 88,1C48,6 114,79 121,32C102,52 82,51 117,18C102,14 83,36 52,21C104,49 72,40 83,32C122,10 88,18 86,34C105,38 52,11 83,18C50,15 89,25 76,71C119,79 69,12 97,65C56,75 49,68 87,48C56,72 121,71 117,17C106,74 99,40 114,74C115,75 103,74 106,11C75,47 113,10 50,0C98,74 116,44 53,34C88,35 50,73 51,36C99,10 88,34 55,24C53,20 57,0 117,35C85,21 49,43 121,71C100,65 84,66 108,10C111,16 55,24 43,34C74,16 70,15 99,70C81,33 52,49 73,68C84,41 121,52 67,40C84,2 68,57 56,54C117,53 68,70 87,55C117,13 79,45 113,39C118,48 120,35 76,34C109,51 67,40 115,39C78,68 97,34 111,53C49,57 55,69 55,73C77,68 114,46 85,32C90,33 116,10 74,54C112,17 108,11 83,71C90,47 83,46 100,67C120,20 66,54 71,15C116,66 50,9 121,40C118,39 87,65 53,46C48,20 87,12 90,18C103,46 115,9 51,3C103,16 81,37 120,54C118,45 76,36 111,9C68,43 106,0 114,65C105,74 57,10 122,66C100,68 84,6 113,66C73,10 80,15 111,75C77,39 115,7 82,51C77,67 106,40 53,3C80,6 78,39 85,16C99,37 105,70 116,44C56,21 119,38 73,2C84,69 110,54 80,49C83,50 117,7 119,45C55,69 72,7 71,36C110,15 57,49 65,68C70,25 85,46 73,25C77,39 66,21 83,35C114,12 98,79 117,32C51,14 49,49 47,48C120,1 75,16 106,38C88,72 108,45 101,23C68,69 71,34 108,40C103,3 109,71 53,71C53,52 51,43 110,45C88,7 118,0 79,73C53,67 82,0 85,71C51,6 90,67 78,49C57,36 118,45 69,25C100,79 85,54 78,4C65,36 50,79 119,6C89,11 98,4 43,49C69,8 53,65 113,69C99,34 52,68 118,79C53,23 110,37 89,22C56,2 113,42 106,4C80,12 76,69 43,12C111,39 107,61 60,75C108,25 116,21 120,17C116,60 0,122 0,122Z" style="fill-rule:nonzero;stroke:black;stroke-opacity:0;stroke-width:100000px;stroke-linecap:butt;stroke-linejoin:miter;stroke-miterlimit:10;"/>
            </g>
            <g transform="matrix(1,0,0,1,508.771,125.959)">
                <path d="M4.259,0.873C4.259,0.833 4.227,0.774 4.159,0.774C4.049,0.774 3.651,1.173 3.481,1.462C3.262,0.923 2.873,0.763 2.554,0.763C1.379,0.763 0.152,2.238 0.152,3.683C0.152,4.66 0.74,5.277 1.468,5.277C1.896,5.277 2.285,5.038 2.643,4.68C2.554,5.029 2.226,6.374 2.195,6.463C2.115,6.743 2.035,6.782 1.477,6.793C1.348,6.793 1.249,6.793 1.249,6.991C1.249,7.001 1.249,7.101 1.379,7.101C1.698,7.101 2.046,7.071 2.374,7.071C2.713,7.071 3.073,7.101 3.401,7.101C3.451,7.101 3.581,7.101 3.581,6.902C3.581,6.793 3.481,6.793 3.321,6.793C2.843,6.793 2.843,6.723 2.843,6.632C2.843,6.563 2.863,6.504 2.884,6.413L4.259,0.873ZM1.498,5.058C0.899,5.058 0.86,4.291 0.86,4.121C0.86,3.643 1.149,2.557 1.318,2.138C1.627,1.401 2.146,0.982 2.554,0.982C3.202,0.982 3.342,1.79 3.342,1.86C3.342,1.919 2.793,4.102 2.763,4.141C2.613,4.421 2.056,5.058 1.498,5.058" style="fill-rule:nonzero;"/>
            </g>
        </g>
        <g transform="matrix(1,0,0,1,-7.40848,19.1493)">
            <g transform="matrix(2e-06,0,0,2e-06,512.474,130.771)">
                <path d="M0,122C60,14 97,6 101,2C105,6 32,7 104,25C49,27 98,25 115,21C54,70 61,88 100,23C120,16 108,53 110,13C68,0 49,23 112,55C105,10 78,33 88,44C43,47 66,33 90,72C85,61 34,60 65,57C65,54 73,34 105,23C106,36 76,46 84,6C116,57 70,54 49,2C111,41 88,68 103,8C76,7 120,13 112,25C113,39 116,8 72,53C76,25 55,48 68,68C69,48 116,47 73,56C70,57 111,9 103,25C109,1 70,33 56,37C115,21 66,70 108,51C43,33 74,5 50,1C47,19 97,67 112,54C55,56 67,75 119,11C73,0 70,73 79,10C105,68 103,22 97,71C122,20 53,0 55,13C82,13 87,25 50,52C113,10 113,69 98,71C89,51 55,79 52,25C79,52 120,25 88,50C84,69 52,79 101,67C54,66 56,13 76,34C70,5 77,9 78,11C79,70 83,49 116,9C80,65 76,35 112,53C108,5 66,12 86,39C112,72 97,75 114,49C122,43 111,6 84,7C82,25 77,42 122,8C53,71 97,17 113,24C70,42 108,43 102,36C97,25 119,74 119,42C56,79 81,70 105,34C86,44 49,24 98,79C116,6 120,35 81,35C43,65 50,73 99,22C88,3 88,65 47,6C112,68 50,50 79,45C54,4 89,68 111,40C56,51 83,15 52,24C122,22 107,9 86,14C114,0 43,49 111,16C70,49 103,2 82,19C97,54 72,54 88,69C70,56 113,35 51,3C70,55 75,48 84,37C72,35 74,55 88,37C85,5 69,24 118,56C70,53 117,45 72,22C80,46 48,53 78,38C79,79 74,75 83,43C109,19 48,21 97,37C72,25 97,36 54,48C104,32 85,6 54,47C107,38 55,21 56,50C52,35 120,49 106,21C76,9 115,18 98,74C108,4 101,46 43,46C98,16 103,0 119,74C83,41 88,33 86,12C112,48 69,19 51,13C70,79 111,25 88,51C67,34 51,79 70,32C115,73 110,6 80,75C106,12 82,65 49,38C106,51 101,79 107,12C89,33 87,14 97,52C121,12 56,40 43,23C106,67 82,37 49,49C51,53 52,5 79,38C101,57 54,48 69,33C108,66 121,18 110,15C112,57 78,35 52,43C90,66 106,79 66,46C122,74 101,15 87,9C103,40 108,46 120,56C49,45 83,8 83,44C51,66 88,38 50,0C117,70 117,49 88,73C68,43 66,51 102,72C75,74 48,11 110,71C66,79 86,14 55,37C89,7 114,6 117,36C56,40 102,0 97,0C50,3 110,55 88,6C68,22 86,5 50,44C49,66 48,21 76,21C65,14 88,5 69,6C100,79 85,22 78,8C67,48 76,20 89,35C77,66 77,42 47,45C81,4 55,65 122,67C55,36 49,70 108,71C101,5 88,9 117,48C87,23 86,20 120,67C117,79 66,34 80,34C111,40 107,61 60,75C108,25 116,21 120,17C116,60 0,122 0,122Z" style="fill-rule:nonzero;stroke:black;stroke-opacity:0;stroke-width:100000px;stroke-linecap:butt;stroke-linejoin:miter;stroke-miterlimit:10;"/>
            </g>
            <g transform="matrix(1,0,0,1,509.974,128.444)">
                <path d="M3.471,1.044C3.292,0.675 3.002,0.407 2.554,0.407C1.388,0.407 0.152,1.872 0.152,3.327C0.152,4.263 0.701,4.921 1.477,4.921C1.677,4.921 2.176,4.882 2.773,4.174C2.852,4.593 3.202,4.921 3.681,4.921C4.029,4.921 4.259,4.691 4.418,4.372C4.587,4.014 4.717,3.407 4.717,3.386C4.717,3.286 4.627,3.286 4.596,3.286C4.498,3.286 4.487,3.327 4.457,3.466C4.288,4.114 4.109,4.702 3.699,4.702C3.431,4.702 3.401,4.443 3.401,4.243C3.401,4.024 3.421,3.944 3.531,3.507C3.64,3.088 3.66,2.988 3.749,2.61L4.109,1.214C4.179,0.935 4.179,0.914 4.179,0.875C4.179,0.707 4.059,0.607 3.89,0.607C3.651,0.607 3.501,0.825 3.471,1.044ZM2.823,3.625C2.773,3.805 2.773,3.825 2.624,3.994C2.185,4.543 1.777,4.702 1.498,4.702C0.999,4.702 0.86,4.154 0.86,3.764C0.86,3.268 1.179,2.041 1.409,1.583C1.716,0.994 2.165,0.625 2.563,0.625C3.212,0.625 3.351,1.443 3.351,1.504C3.351,1.563 3.331,1.622 3.321,1.672L2.823,3.625" style="fill-rule:nonzero;"/>
            </g>
        </g>
        <g transform="matrix(1,0,0,1,-0.392192,1.02501)">
            <g transform="matrix(2e-06,0,0,2e-06,520.554,139.907)">
                <path d="M0,122C60,14 97,6 101,2C105,6 32,7 104,25C49,27 98,25 115,21C54,70 61,88 109,57C86,9 89,79 114,22C119,49 53,36 75,1C81,57 52,33 99,10C112,21 54,73 55,11C85,61 34,60 65,57C65,54 73,34 105,23C106,36 76,44 84,18C78,40 70,42 52,68C105,19 75,17 65,17C55,32 84,47 103,15C114,55 90,71 83,9C108,72 82,68 73,39C78,17 83,41 87,55C65,56 89,13 97,51C83,0 118,10 47,51C88,5 116,53 108,10C43,19 82,5 57,41C108,66 71,12 102,51C72,21 70,36 88,42C106,22 119,72 68,17C111,6 69,67 117,34C80,79 118,75 78,0C84,73 103,15 115,25C109,37 117,13 48,70C106,2 52,4 80,50C109,68 117,46 84,66C98,43 88,69 105,69C101,8 97,79 115,12C74,18 43,36 107,21C53,52 101,32 75,34C90,72 70,19 100,56C74,12 117,14 102,52C86,25 76,42 105,14C73,50 97,32 106,11C48,71 68,70 122,6C112,42 120,67 111,74C99,32 53,65 114,55C97,52 118,15 121,54C102,18 90,20 120,73C70,41 85,34 85,66C43,46 84,25 86,52C53,12 116,65 49,36C76,36 100,69 51,21C55,43 114,6 43,2C106,51 112,71 87,8C55,8 101,74 112,43C69,75 85,69 121,6C99,25 67,67 106,57C70,34 74,53 71,55C71,52 82,11 97,47C102,49 73,57 104,6C56,69 102,55 103,37C49,52 49,17 83,14C49,48 76,18 97,67C120,19 122,46 106,56C51,40 83,65 77,16C111,50 98,49 102,69C47,39 101,25 51,44C75,52 116,45 73,65C69,40 115,1 83,66C74,39 78,22 98,42C72,5 67,72 74,49C98,69 116,36 107,0C101,15 118,71 104,4C82,44 101,20 109,72C69,9 121,46 98,55C67,35 107,11 105,42C101,33 104,67 82,37C71,44 68,12 88,67C70,10 55,38 110,67C55,74 106,24 86,70C86,8 118,48 86,79C89,14 90,33 105,45C90,72 71,4 51,56C101,37 57,46 83,22C49,41 76,55 52,79C105,51 101,20 71,47C72,49 89,66 52,19C73,79 50,2 65,16C118,12 66,3 82,34C101,8 52,17 68,33C82,9 81,23 108,9C120,49 66,70 74,25C109,22 118,68 49,12C102,12 99,18 56,34C80,47 113,21 68,45C102,68 85,10 53,41C72,12 90,79 82,52C68,35 98,23 110,11C99,36 99,21 99,0C74,1 51,42 55,71C106,6 89,65 88,23C101,73 51,4 48,39C73,72 115,49 108,6C55,7 111,24 55,43C69,57 82,79 119,6C89,11 98,42 43,49C75,4 122,16 102,12C117,75 80,54 43,34C110,4 54,16 84,9C109,52 102,70 54,0C104,71 118,3 71,50C65,9 69,19 60,75C108,25 116,21 120,17C116,60 0,122 0,122Z" style="fill-rule:nonzero;stroke:black;stroke-opacity:0;stroke-width:100000px;stroke-linecap:butt;stroke-linejoin:miter;stroke-miterlimit:10;"/>
            </g>
            <g transform="matrix(1,0,0,1,517.554,136.568)">
                <path d="M2.757,0.516C2.757,0.507 2.757,0.407 2.628,0.407C2.4,0.407 1.671,0.486 1.412,0.507C1.332,0.516 1.223,0.527 1.223,0.705C1.223,0.825 1.314,0.825 1.462,0.825C1.94,0.825 1.96,0.896 1.96,0.994L1.931,1.194L0.486,6.933C0.446,7.074 0.446,7.093 0.446,7.154C0.446,7.382 0.645,7.432 0.735,7.432C0.895,7.432 1.054,7.313 1.104,7.172L1.293,6.416L1.512,5.519C1.571,5.299 1.632,5.08 1.682,4.85C1.701,4.791 1.781,4.463 1.792,4.402C1.821,4.313 2.131,3.755 2.468,3.486C2.689,3.327 2.996,3.136 3.426,3.136C3.854,3.136 3.964,3.475 3.964,3.835C3.964,4.372 3.586,5.458 3.346,6.066C3.267,6.296 3.217,6.416 3.217,6.614C3.217,7.083 3.565,7.432 4.034,7.432C4.97,7.432 5.339,5.977 5.339,5.897C5.339,5.797 5.25,5.797 5.22,5.797C5.12,5.797 5.12,5.827 5.07,5.977C4.92,6.505 4.601,7.213 4.053,7.213C3.884,7.213 3.814,7.113 3.814,6.883C3.814,6.635 3.904,6.396 3.993,6.177C4.153,5.747 4.601,4.561 4.601,3.985C4.601,3.336 4.203,2.918 3.456,2.918C2.828,2.918 2.35,3.227 1.981,3.685L2.757,0.516" style="fill-rule:nonzero;"/>
            </g>
        </g>
        <g transform="matrix(1,0,0,1,36.3171,-37.5)">
            <g transform="matrix(2e-06,0,0,2e-06,462.447,130.645)">
                <path d="M0,122C60,14 97,6 101,2C105,6 32,7 104,25C49,27 98,25 115,21C54,70 61,88 67,21C73,54 73,54 56,8C109,66 86,53 98,17C72,66 87,24 120,20C54,8 109,4 113,65C119,61 34,60 65,57C65,54 74,50 105,23C106,36 74,44 84,2C82,56 69,50 48,67C103,17 74,79 65,40C54,69 84,52 104,44C80,53 49,68 108,13C86,73 98,1 81,17C52,35 75,55 105,41C115,15 81,45 122,45C48,43 120,72 100,8C52,1 80,37 115,55C109,75 48,46 88,5C85,34 43,51 117,66C71,41 57,21 43,55C85,21 102,52 48,45C74,18 52,72 50,10C79,21 113,12 112,36C57,24 113,8 117,5C73,1 78,24 90,35C54,13 102,46 117,67C101,3 101,42 47,56C48,7 80,14 82,70C43,20 80,50 50,72C115,8 112,72 89,49C116,48 108,21 104,56C85,9 82,52 100,40C82,50 86,9 99,13C49,70 80,25 49,47C107,79 75,17 115,22C90,34 71,9 68,79C80,2 87,79 99,75C118,44 67,36 78,37C88,79 115,24 52,7C57,35 107,35 68,34C78,0 98,10 75,11C100,6 66,48 79,38C75,20 86,6 111,9C54,51 49,73 43,68C114,16 113,68 68,20C51,65 119,47 101,74C53,40 51,36 52,12C57,45 78,57 121,35C113,16 87,20 118,52C97,13 115,40 74,0C104,54 103,41 81,38C90,44 68,49 85,36C78,42 69,23 72,1C79,74 89,49 104,32C76,33 75,25 98,53C75,13 112,51 47,56C111,0 76,54 78,71C119,17 106,44 105,49C106,11 109,42 56,18C114,21 77,51 122,35C107,67 84,17 118,32C67,37 57,48 117,39C116,13 43,12 106,48C118,39 117,45 77,25C80,22 113,32 113,68C112,20 122,52 102,39C88,33 99,43 52,48C85,72 70,72 78,67C121,15 106,49 88,2C108,4 77,65 80,38C86,51 106,42 108,34C98,6 90,53 122,4C52,67 48,65 86,36C52,2 120,4 112,56C55,54 71,69 97,55C117,53 113,38 80,0C119,67 57,52 84,53C120,5 76,2 56,37C52,17 104,79 83,49C120,24 53,19 68,71C76,47 65,35 47,19C43,12 122,50 52,53C118,44 90,69 83,40C83,55 48,7 101,23C77,33 107,25 43,17C100,42 49,71 57,69C108,20 88,37 122,79C103,12 89,13 80,42C78,20 97,37 112,67C120,42 53,32 101,36C71,46 71,25 102,12C98,15 84,66 43,23C112,56 74,3 104,67C81,20 101,54 97,13C43,75 97,43 90,11C67,21 118,33 119,55C118,43 121,13 116,7C89,3 47,67 114,55C48,18 57,72 100,66C119,24 88,71 49,20C118,13 102,20 100,79C51,49 90,68 114,39C98,12 79,20 53,25C51,7 49,4 83,18C105,17 99,3 61,61C60,75 108,25 116,21C120,17 116,60 0,122Z" style="fill-rule:nonzero;stroke:black;stroke-opacity:0;stroke-width:100000px;stroke-linecap:butt;stroke-linejoin:miter;stroke-miterlimit:10;"/>
            </g>
            <g transform="matrix(1,0,0,1,459.447,126.355)">
                <path d="M4.199,0.405C4.199,0.385 4.228,0.275 4.228,0.266C4.228,0.255 4.228,0.166 4.11,0.166C4.01,0.166 3.999,0.196 3.96,0.366L3.382,2.667C1.797,2.717 0.331,4.042 0.331,5.397C0.331,6.344 1.03,7.131 2.246,7.202C2.166,7.51 2.096,7.828 2.016,8.138C1.897,8.606 1.797,8.985 1.797,9.014C1.797,9.114 1.867,9.124 1.917,9.124C1.966,9.124 1.986,9.114 2.016,9.085C2.036,9.064 2.096,8.825 2.125,8.686L2.505,7.202C4.11,7.152 5.553,5.806 5.553,4.471C5.553,3.683 5.025,2.767 3.641,2.667L4.199,0.405ZM2.296,6.981C1.697,6.952 0.98,6.603 0.98,5.606C0.98,4.411 1.836,3.016 3.322,2.886L2.296,6.981ZM3.582,2.886C4.338,2.927 4.907,3.385 4.907,4.261C4.907,5.438 4.049,6.863 2.555,6.981L3.582,2.886" style="fill-rule:nonzero;"/>
            </g>
        </g>
        <g transform="matrix(1,0,0,1,36.3171,-37.5)">
            <path d="M465,136L465.861,137.5L466.861,136.141" style="fill:none;stroke:black;stroke-width:0.6px;"/>
        </g>
        <g transform="matrix(1,0,0,2.78788,36.3171,-258.985)">
            <path d="M465.861,128.766C466.263,126.5 466.959,125 467.75,125C468.279,125 468.766,125.671 469.15,126.793" style="fill:none;stroke:black;stroke-width:0.29px;"/>
        </g>
        <g transform="matrix(1,0,0,1,-121.612,8.42351)">
            <g transform="matrix(2e-06,0,0,2e-06,570.993,149.646)">
                <path d="M0,122C60,14 97,6 101,2C105,6 32,7 104,25C49,27 98,25 115,21C54,70 61,88 73,41C106,52 107,65 120,15C72,0 97,40 79,37C80,47 71,15 119,42C56,33 87,7 87,41C99,61 34,60 65,57C65,54 75,12 105,23C106,36 76,46 83,18C120,56 70,54 51,38C82,13 78,45 102,55C47,22 78,56 109,53C114,49 89,21 67,33C108,46 73,40 113,1C67,39 104,15 86,47C73,39 113,6 113,25C109,35 98,68 82,36C101,44 113,45 80,66C82,24 98,68 66,20C109,25 55,45 83,6C110,79 69,17 112,68C54,22 81,55 74,54C114,47 98,68 118,7C57,65 49,44 86,14C109,14 103,34 82,38C101,44 89,43 114,32C57,45 122,0 50,40C100,0 76,73 47,44C76,1 119,5 76,25C47,7 50,72 74,33C120,25 89,38 70,72C108,40 72,35 112,14C84,32 114,15 112,5C77,39 108,69 114,54C115,16 73,9 48,68C107,69 48,49 77,42C51,12 53,3 90,17C113,24 70,42 107,34C100,73 71,25 107,74C122,73 56,9 83,24C120,45 112,40 57,20C85,70 85,68 54,4C117,68 80,0 56,24C101,14 90,6 83,47C53,49 83,42 109,34C98,44 78,52 71,20C51,35 75,69 77,33C49,16 110,47 74,57C106,55 69,1 71,43C82,3 53,52 77,11C87,50 53,50 97,55C78,55 83,22 48,48C82,6 82,36 53,56C75,2 71,70 119,2C120,65 103,18 118,41C119,65 70,46 85,54C47,12 117,37 106,13C112,6 84,6 108,16C87,11 109,43 109,39C88,14 114,40 103,32C89,10 51,71 111,1C66,9 101,4 117,7C104,8 119,14 118,21C101,65 70,52 49,4C89,11 97,40 73,42C115,47 76,74 105,73C73,54 53,19 102,9C98,52 111,37 43,20C47,66 86,13 116,21C102,70 121,32 71,79C76,70 99,5 78,9C87,20 104,56 87,35C111,4 71,22 120,12C57,3 116,13 109,10C113,56 117,49 74,23C83,43 101,42 97,49C111,37 85,79 52,3C120,1 48,19 52,8C56,50 80,79 106,40C66,47 122,68 101,15C83,9 103,40 108,46C120,51 86,45 83,8C83,42 51,66 102,38C50,38 117,65 80,53C76,1 104,12 103,16C80,69 108,37 97,37C43,69 121,20 108,40C101,73 56,44 118,38C47,12 100,34 72,16C80,67 71,68 51,72C117,65 98,24 118,25C105,69 70,22 90,67C78,49 115,73 118,45C89,24 55,7 112,67C98,43 69,38 100,6C108,24 122,44 122,20C99,33 88,8 52,53C102,3 77,67 103,48C98,18 57,23 103,74C89,22 115,70 113,75C84,12 68,71 67,69C104,33 112,42 115,61C60,75 108,25 116,21C120,17 116,60 0,122Z" style="fill:none;fill-rule:nonzero;stroke:black;stroke-opacity:0;stroke-width:100000px;stroke-linecap:butt;stroke-linejoin:miter;stroke-miterlimit:10;"/>
            </g>
            <g transform="matrix(0.1,0,0,0.1,568.695,147.796)">
                <path d="M30,20.402L30,20.398C30,20.398 30,20.402 30,20.398L30,20.402Z" style="fill:none;fill-rule:nonzero;stroke:black;stroke-opacity:0;stroke-width:1px;stroke-linecap:butt;stroke-linejoin:miter;stroke-miterlimit:10;"/>
            </g>
            <g transform="matrix(1,0,0,1,567.993,147.471)">
                <path d="M3.958,2.147L4.89,1.111C4.994,1 5.041,0.943 5.702,0.943L5.702,0.57C5.424,0.586 5.01,0.593 4.969,0.593C4.771,0.593 4.372,0.578 4.149,0.57L4.149,0.943C4.261,0.943 4.357,0.959 4.452,1.015C4.421,1.064 4.421,1.079 4.388,1.111L3.719,1.859L2.938,0.943L3.257,0.943L3.257,0.57C3.05,0.578 2.549,0.593 2.293,0.593C2.038,0.593 1.68,0.578 1.418,0.57L1.418,0.943L1.983,0.943L3.225,2.409L2.182,3.581C2.046,3.731 1.76,3.731 1.377,3.731L1.377,4.106C1.657,4.09 2.071,4.083 2.11,4.083C2.31,4.083 2.771,4.098 2.93,4.106L2.93,3.731C2.786,3.731 2.636,3.692 2.636,3.643C2.636,3.636 2.636,3.628 2.691,3.564L3.465,2.697L4.341,3.731L4.03,3.731L4.03,4.106C4.236,4.098 4.722,4.083 4.986,4.083C5.241,4.083 5.599,4.098 5.861,4.106L5.861,3.731L5.296,3.731L3.958,2.147" style="fill-rule:nonzero;"/>
            </g>
        </g>
        <g transform="matrix(1,0,0,1,-11.6123,6.65554)">
            <g transform="matrix(2e-06,0,0,2e-06,571.013,149.449)">
                <path d="M0,122C60,14 97,6 101,2C105,6 32,7 104,25C49,27 98,25 115,21C54,70 61,88 120,79C103,48 111,9 122,1C106,7 81,79 102,70C111,20 81,34 68,24C86,4 102,44 104,42C73,61 34,60 65,57C65,54 75,12 105,23C106,36 76,46 83,18C120,56 70,54 51,38C120,7 82,11 72,18C113,34 50,38 81,32C66,52 100,54 106,70C106,48 85,7 103,54C78,3 71,52 106,49C111,42 112,47 113,6C109,35 109,13 88,71C84,36 67,48 78,18C47,7 75,6 102,11C70,20 107,69 50,70C57,38 78,23 101,43C114,25 67,39 81,1C120,51 113,9 55,75C118,23 82,73 49,22C112,11 108,73 85,34C84,22 67,51 97,21C122,38 53,75 77,20C100,1 102,5 72,36C54,0 100,4 70,69C102,21 55,22 112,17C87,45 87,13 69,2C100,10 85,21 49,8C90,37 50,25 53,47C98,16 69,10 101,25C47,24 73,1 75,6C79,10 50,22 79,54C122,65 54,79 100,72C89,9 109,2 84,69C68,0 99,9 122,34C71,13 101,12 110,39C84,35 76,14 113,54C111,70 121,10 84,8C54,79 53,70 78,54C108,32 98,53 97,6C83,53 55,70 109,51C110,34 84,56 80,73C50,39 54,35 71,8C77,70 119,17 107,47C120,56 103,17 103,74C69,43 82,0 54,52C103,5 86,71 105,54C89,17 108,44 81,22C89,74 120,22 82,39C52,40 117,66 69,53C56,70 119,22 48,7C118,41 81,73 69,67C52,46 57,50 54,24C68,35 53,10 81,65C112,10 88,11 109,52C108,39 51,11 113,40C73,36 90,70 118,3C109,17 112,8 102,42C97,7 104,24 48,16C118,21 110,68 76,8C84,23 48,3 70,13C82,20 52,33 104,37C67,79 73,54 53,12C100,25 72,42 114,74C43,36 57,7 86,12C116,43 110,18 122,10C43,71 76,11 52,10C80,74 107,67 68,55C85,16 83,79 48,75C103,42 122,18 100,25C75,5 111,51 89,19C110,2 86,38 120,67C120,44 65,17 110,71C69,51 79,35 109,50C70,20 103,69 47,74C89,49 112,21 100,38C85,17 88,37 67,53C112,21 73,1 114,17C86,25 82,79 47,8C54,21 54,22 49,10C52,18 101,37 77,66C71,32 47,15 112,16C121,12 51,43 122,66C113,46 87,4 106,6C97,20 43,67 75,70C43,32 51,24 86,35C101,68 79,73 118,18C77,73 78,66 78,68C106,79 98,3 72,18C43,3 121,14 51,69C105,53 49,7 89,32C117,65 120,23 120,65C106,19 116,23 66,14C102,56 114,79 65,68C117,50 108,3 68,40C112,73 122,54 76,79C79,7 72,6 80,32C115,35 112,42 119,61C60,75 108,25 116,21C120,17 116,60 0,122Z" style="fill:none;fill-rule:nonzero;stroke:black;stroke-opacity:0;stroke-width:100000px;stroke-linecap:butt;stroke-linejoin:miter;stroke-miterlimit:10;"/>
            </g>
            <g transform="matrix(0.1,0,0,0.1,568.715,146.6)">
                <path d="M30,30.402L30,30.398C30,30.398 30,30.402 30,30.398L30,30.402Z" style="fill:none;fill-rule:nonzero;stroke:black;stroke-opacity:0;stroke-width:1px;stroke-linecap:butt;stroke-linejoin:miter;stroke-miterlimit:10;"/>
            </g>
            <g transform="matrix(1,0,0,1,568.013,146.667)">
                <path d="M5.233,1.117C5.288,1.006 5.313,0.95 5.822,0.95L5.822,0.576C5.63,0.592 5.393,0.6 5.193,0.6C4.994,0.6 4.635,0.584 4.468,0.576L4.468,0.95C4.483,0.95 4.843,0.95 4.843,1.045C4.843,1.053 4.81,1.132 4.802,1.14L3.886,3.101L2.875,0.95L3.305,0.95L3.305,0.576C3.043,0.592 2.325,0.6 2.318,0.6C2.094,0.6 1.736,0.584 1.41,0.576L1.41,0.95L1.919,0.95L3.408,4.112L3.225,4.495C3.05,4.876 2.796,5.418 2.23,5.418C2.118,5.418 2.102,5.411 2.038,5.387C2.11,5.354 2.293,5.243 2.293,4.964C2.293,4.701 2.102,4.511 1.832,4.511C1.608,4.511 1.377,4.662 1.377,4.973C1.377,5.379 1.752,5.706 2.23,5.706C2.843,5.706 3.305,5.212 3.521,4.758L5.233,1.117" style="fill-rule:nonzero;"/>
            </g>
        </g>
    </g>
</svg>
